<svg width="120" height="124" viewBox="0 0 120 124" fill="none" xmlns="http://www.w3.org/2000/svg">
<path d="M42 41H78V39H42V41ZM79 42V82H81V42H79ZM78 83H42V85H78V83ZM41 82V42H39V82H41ZM42 83C41.4477 83 41 82.5523 41 82H39C39 83.6569 40.3431 85 42 85V83ZM79 82C79 82.5523 78.5523 83 78 83V85C79.6569 85 81 83.6569 81 82H79ZM78 41C78.5523 41 79 41.4477 79 42H81C81 40.3431 79.6569 39 78 39V41ZM42 39C40.3431 39 39 40.3431 39 42H41C41 41.4477 41.4477 41 42 41V39Z" fill="black" fill-opacity="0.1"/>
<path d="M41 71.6692V50.5L60 62.3154V82.5L41 71.6692Z" stroke="black"/>
<path d="M79 54.5L58.5 42L41 50.5" stroke="black"/>
<path d="M61 62.5L79 54.5V72L61 82" stroke="black"/>
<path d="M77 70.5L63 78V64.5L77 58.5V70.5Z" fill="black"/>
<path d="M44 70.5V55.5L56.5 64.5V78L44 70.5Z" fill="black"/>
<path d="M59.5 58.5L46 51L59.5 45.5L72.5 53L59.5 58.5Z" fill="black"/>
<path d="M77 70.5L63 78V64.5L77 58.5V70.5Z" stroke="black"/>
<path d="M44 70.5V55.5L56.5 64.5V78L44 70.5Z" stroke="black"/>
<path d="M59.5 58.5L46 51L59.5 45.5L72.5 53L59.5 58.5Z" stroke="black"/>
</svg>
